<svg width="111" height="95" xmlns="http://www.w3.org/2000/svg" xmlns:xlink="http://www.w3.org/1999/xlink"><defs><filter x="-49.2%" y="-49.2%" width="198.4%" height="198.4%" filterUnits="objectBoundingBox" id="c"><feGaussianBlur stdDeviation="10" in="SourceGraphic"/></filter><filter x="-44.4%" y="-44.4%" width="188.9%" height="188.9%" filterUnits="objectBoundingBox" id="e"><feGaussianBlur stdDeviation="8" in="SourceGraphic"/></filter><linearGradient x1="98.212%" y1="50%" x2="9.136%" y2="50%" id="b"><stop stop-color="#079E13" offset="0%"/><stop stop-color="#10AB19" offset="27.245%"/><stop stop-color="#0B9DA4" offset="55.835%"/><stop stop-color="#0713A9" offset="100%"/></linearGradient><path d="M3 0h105a3 3 0 010 6H3a3 3 0 110-6z" id="a"/></defs><g fill="none" fill-rule="evenodd"><path d="M6.048 62.953h-3.84v-11.59h3.937c1.145 0 2.127.232 2.947.694a4.65 4.65 0 011.892 1.988c.44.863.66 1.895.66 3.097 0 1.207-.221 2.245-.663 3.114a4.65 4.65 0 01-1.916 2c-.835.464-1.84.697-3.017.697zM4.134 61.28H5.95c.842 0 1.545-.157 2.107-.472a2.95 2.95 0 001.265-1.392c.28-.613.42-1.371.42-2.274 0-.897-.14-1.65-.418-2.26-.279-.61-.693-1.07-1.244-1.38-.55-.31-1.232-.466-2.047-.466h-1.9v8.244zm14.534-1.956v-5.063h1.872v8.692h-1.824v-1.526h-.09c-.2.475-.52.867-.963 1.176-.443.308-.99.463-1.645.463-.562 0-1.06-.126-1.491-.377a2.582 2.582 0 01-1.015-1.107c-.244-.487-.366-1.084-.368-1.792v-5.53h1.872v5.27c0 .573.159 1.028.473 1.366.315.337.725.506 1.23.506.311 0 .616-.076.914-.228.3-.152.547-.382.743-.69.196-.307.293-.694.292-1.16zm9.113 0v-5.063h1.871v8.692h-1.824v-1.526h-.09c-.2.475-.52.867-.963 1.176-.442.308-.99.463-1.644.463-.562 0-1.06-.126-1.492-.377a2.582 2.582 0 01-1.014-1.107c-.244-.487-.367-1.084-.368-1.792v-5.53h1.871v5.27c.002.573.16 1.028.474 1.366.314.337.725.506 1.23.506.31 0 .615-.076.914-.228a1.89 1.89 0 00.742-.69c.196-.307.294-.694.293-1.16zm3.589 3.629V54.26h1.812v1.415h.09c.16-.485.435-.863.83-1.136a2.31 2.31 0 011.345-.408c.11 0 .236.004.38.013.142.009.259.022.349.038v1.75a2.829 2.829 0 00-.387-.073 3.835 3.835 0 00-.53-.037c-.387 0-.732.082-1.036.246-.304.164-.544.39-.72.68-.174.29-.262.621-.262.995v5.209H31.37zm5.605 0v-1.23l4.593-5.8v-.078h-4.442v-1.584h6.753v1.315l-4.397 5.715v.077h4.549v1.585zm11.06.183c-.551 0-1.048-.1-1.49-.302a2.437 2.437 0 01-1.047-.888c-.257-.391-.386-.871-.386-1.44 0-.491.093-.897.279-1.216a2.1 2.1 0 01.754-.761 3.837 3.837 0 011.067-.427c.395-.096.8-.168 1.217-.215.516-.059.934-.11 1.254-.15.32-.042.553-.108.7-.199.146-.09.219-.236.219-.437v-.038c0-.459-.132-.814-.397-1.067s-.653-.38-1.165-.38c-.535 0-.958.118-1.267.352-.31.235-.521.503-.636.805l-1.749-.317c.17-.528.432-.963.788-1.304a3.33 3.33 0 011.265-.758 4.935 4.935 0 011.581-.246c.382 0 .775.045 1.178.134.403.09.776.245 1.119.465.343.22.621.526.834.917.214.392.32.89.32 1.494v5.795h-1.81v-1.191h-.068c-.115.23-.284.45-.506.66-.222.21-.503.382-.843.515-.34.133-.743.199-1.21.199zm.449-1.43c.44 0 .82-.088 1.137-.263a1.89 1.89 0 00.732-.69c.17-.285.256-.594.256-.926v-1.073c-.065.058-.178.11-.339.157a5.005 5.005 0 01-.547.125c-.204.036-.405.067-.602.093l-.501.068a4.014 4.014 0 00-.857.208 1.454 1.454 0 00-.609.406c-.15.176-.225.405-.225.688 0 .397.146.698.439.901.292.204.664.305 1.116.305zm8.196 1.43c-.552 0-1.048-.1-1.49-.302a2.437 2.437 0 01-1.048-.888c-.257-.391-.386-.871-.386-1.44 0-.491.093-.897.28-1.216a2.09 2.09 0 01.753-.761 3.85 3.85 0 011.067-.427c.395-.096.8-.168 1.218-.215a85.42 85.42 0 001.253-.15c.32-.042.553-.108.7-.199.146-.09.22-.236.22-.437v-.038c0-.459-.133-.814-.398-1.067-.264-.253-.653-.38-1.164-.38-.536 0-.958.118-1.268.352-.31.235-.521.503-.635.805l-1.75-.317c.17-.528.433-.963.788-1.304a3.33 3.33 0 011.266-.758 4.935 4.935 0 011.58-.246c.383 0 .775.045 1.178.134.403.09.776.245 1.12.465.342.22.62.526.834.917.213.392.32.89.32 1.494v5.795h-1.81v-1.191h-.069c-.115.23-.284.45-.506.66-.222.21-.503.382-.843.515-.34.133-.743.199-1.21.199zm.448-1.43c.44 0 .82-.088 1.138-.263a1.89 1.89 0 00.731-.69c.17-.285.256-.594.256-.926v-1.073c-.065.058-.177.11-.338.157a5.005 5.005 0 01-.548.125c-.204.036-.405.067-.601.093l-.502.068a4.014 4.014 0 00-.857.208 1.467 1.467 0 00-.609.406c-.15.176-.225.405-.225.688 0 .397.147.698.439.901.293.204.665.305 1.116.305zm5.68 1.247V54.26H64.6v1.446h.106c.181-.488.479-.87.892-1.145.414-.276.91-.414 1.487-.414.584 0 1.077.139 1.477.416.4.278.69.659.867 1.143h.09c.2-.474.528-.852.983-1.135.455-.283.998-.424 1.627-.424.794 0 1.441.25 1.943.75.501.5.752 1.241.752 2.224v5.83h-1.872V57.36c0-.563-.151-.973-.454-1.231a1.64 1.64 0 00-1.1-.387c-.524 0-.932.161-1.222.484-.291.322-.437.738-.437 1.245v5.483h-1.846v-5.689c0-.46-.142-.829-.424-1.106-.282-.278-.648-.417-1.1-.417-.307 0-.589.08-.845.238-.256.16-.461.38-.615.664-.153.283-.23.612-.23.986v5.324h-1.871zM6.048 78.887h-3.84V67.298h3.937c1.145 0 2.127.231 2.947.694a4.65 4.65 0 011.892 1.987c.44.864.66 1.896.66 3.098 0 1.207-.221 2.245-.663 3.113a4.65 4.65 0 01-1.916 2c-.835.465-1.84.697-3.017.697zm-1.914-1.672H5.95c.842 0 1.545-.158 2.107-.472a2.95 2.95 0 001.265-1.392c.28-.614.42-1.372.42-2.274 0-.897-.14-1.65-.418-2.26-.279-.61-.693-1.07-1.244-1.38-.55-.31-1.232-.466-2.047-.466h-1.9v8.244zm9.01 1.672v-8.691h1.872v8.691h-1.873zm.944-9.976a1.12 1.12 0 01-.795-.311.995.995 0 01-.33-.753c0-.29.11-.54.33-.747a1.12 1.12 0 01.795-.31c.31 0 .574.103.795.31a.99.99 0 01.33.747c0 .294-.11.545-.33.753a1.12 1.12 0 01-.795.311zm6.356 13.39c-.712 0-1.324-.094-1.835-.282-.511-.188-.925-.438-1.243-.75a2.837 2.837 0 01-.685-1.024l1.648-.523c.093.158.223.323.388.497.166.174.39.322.673.444.283.121.643.182 1.082.182.612 0 1.117-.147 1.517-.441.399-.294.598-.765.598-1.413v-1.677h-.106c-.103.2-.252.41-.447.635a2.41 2.41 0 01-.792.573c-.332.157-.755.236-1.268.236a3.57 3.57 0 01-1.833-.477c-.545-.319-.977-.793-1.296-1.423-.319-.63-.478-1.413-.478-2.348 0-.938.158-1.737.475-2.398.317-.66.749-1.163 1.295-1.51a3.373 3.373 0 011.846-.52c.525 0 .953.088 1.284.264.33.175.592.382.783.621.19.24.338.456.44.65h.116v-1.421h1.84v8.859c0 .734-.176 1.341-.526 1.821-.35.48-.826.837-1.43 1.072-.603.235-1.285.353-2.046.353zm.003-5.048c.46 0 .851-.11 1.172-.33.32-.22.564-.535.732-.947.168-.413.252-.906.252-1.482 0-.567-.082-1.065-.248-1.493-.165-.427-.408-.76-.729-1-.32-.24-.713-.36-1.18-.36-.481 0-.884.126-1.207.376s-.567.59-.73 1.02a4.09 4.09 0 00-.244 1.457c0 .551.083 1.034.249 1.447.165.414.41.736.733.966.323.23.723.346 1.2.346zm5.715 1.634v-8.691h1.872v8.691h-1.872zm.944-9.976a1.12 1.12 0 01-.795-.311.995.995 0 01-.33-.753c0-.29.11-.54.33-.747a1.12 1.12 0 01.795-.31c.31 0 .575.103.795.31a.99.99 0 01.331.747c0 .294-.11.545-.33.753a1.12 1.12 0 01-.796.311zm6.845 1.285v1.47h-4.87v-1.47h4.87zm-3.618-2.083h1.871v8.193c0 .3.046.528.136.683.09.155.21.26.359.316a1.4 1.4 0 00.49.083c.131 0 .249-.01.353-.028a7.37 7.37 0 00.242-.047l.326 1.498a3.602 3.602 0 01-1.152.192 3.13 3.13 0 01-1.316-.237 2.138 2.138 0 01-.954-.784c-.239-.354-.357-.798-.355-1.334v-8.535zm7.456 10.958a3.542 3.542 0 01-1.49-.303 2.437 2.437 0 01-1.048-.888c-.257-.39-.385-.87-.385-1.44 0-.49.093-.896.278-1.215.186-.32.438-.573.755-.762.316-.188.672-.33 1.067-.427.394-.096.8-.167 1.217-.214.516-.06.933-.11 1.253-.15.32-.042.553-.108.7-.2.146-.09.22-.235.22-.436v-.038c0-.459-.133-.815-.397-1.068-.265-.252-.653-.379-1.165-.379-.536 0-.958.118-1.268.352-.309.235-.52.503-.635.805l-1.75-.317c.17-.528.433-.963.788-1.304a3.33 3.33 0 011.266-.758 4.935 4.935 0 011.58-.247c.383 0 .775.045 1.178.135.403.09.776.245 1.12.465s.62.526.834.917c.213.392.32.89.32 1.494v5.794h-1.81v-1.19h-.068a2.458 2.458 0 01-.506.66c-.222.21-.503.382-.843.514-.34.133-.744.2-1.21.2zm.448-1.43c.441 0 .82-.088 1.138-.263a1.89 1.89 0 00.732-.69c.17-.285.255-.594.255-.927V74.69a.91.91 0 01-.338.157 5.005 5.005 0 01-.548.125c-.204.035-.404.066-.601.093l-.502.068a3.96 3.96 0 00-.856.208 1.44 1.44 0 00-.61.406c-.15.176-.224.405-.224.688 0 .397.146.697.438.9.293.204.665.306 1.116.306zm8.196 1.43c-.551 0-1.048-.101-1.49-.303s-.79-.497-1.047-.888c-.258-.39-.386-.87-.386-1.44 0-.49.093-.896.279-1.215.186-.32.437-.573.754-.762a3.9 3.9 0 011.067-.427c.394-.096.8-.167 1.217-.214.516-.06.933-.11 1.253-.15.32-.042.553-.108.7-.2.146-.09.22-.235.22-.436v-.038c0-.459-.133-.815-.397-1.068-.265-.252-.653-.379-1.165-.379-.535 0-.958.118-1.267.352-.31.235-.522.503-.636.805l-1.75-.317c.17-.528.433-.963.788-1.304a3.33 3.33 0 011.266-.758 4.935 4.935 0 011.581-.247 5.4 5.4 0 011.178.135c.403.09.776.245 1.119.465.343.22.62.526.834.917.213.392.32.89.32 1.494v5.794h-1.81v-1.19h-.068a2.438 2.438 0 01-.506.66c-.222.21-.503.382-.843.514-.34.133-.744.2-1.21.2zm.449-1.43c.44 0 .82-.088 1.137-.263a1.89 1.89 0 00.732-.69c.17-.285.255-.594.255-.927V74.69a.91.91 0 01-.338.157 5.005 5.005 0 01-.548.125c-.204.035-.404.066-.6.093l-.503.068a3.96 3.96 0 00-.856.208c-.256.095-.459.23-.609.406-.15.176-.225.405-.225.688 0 .397.146.697.439.9.292.204.664.306 1.116.306zm7.55-10.343v11.59h-1.87v-11.59zM3.492 83.233l3.12 9.28h.123l3.12-9.28h2.096L7.824 94.822H5.521L1.395 83.233zm12.373 11.763c-.864 0-1.609-.183-2.233-.55a3.672 3.672 0 01-1.442-1.555c-.336-.67-.504-1.457-.504-2.36 0-.893.168-1.678.505-2.357a3.84 3.84 0 011.419-1.587c.608-.38 1.322-.57 2.14-.57a4.36 4.36 0 011.473.25 3.47 3.47 0 011.253.779c.366.352.655.805.867 1.359.211.553.317 1.217.317 1.992v.613h-7.017v-1.324h5.205a2.365 2.365 0 00-.261-1.117 1.95 1.95 0 00-.726-.771 2.067 2.067 0 00-1.09-.282c-.449 0-.84.107-1.174.323a2.221 2.221 0 00-.775.848c-.183.35-.276.73-.278 1.142v1.095c0 .544.097 1.007.292 1.39.195.385.467.678.818.88.35.203.761.304 1.232.304.31 0 .591-.044.844-.132a1.78 1.78 0 00.656-.396c.183-.176.324-.394.421-.654l1.758.254a2.93 2.93 0 01-.688 1.277 3.359 3.359 0 01-1.267.848c-.51.2-1.092.301-1.745.301zm5.133-.174V86.13h1.812v1.415h.09c.159-.484.435-.863.83-1.135a2.31 2.31 0 011.343-.41c.11 0 .236.005.379.014.143.008.26.021.35.038v1.75a2.829 2.829 0 00-.387-.073 3.835 3.835 0 00-.53-.038 2.15 2.15 0 00-1.037.246 1.85 1.85 0 00-.718.68c-.175.29-.263.621-.263.996v5.208h-1.871zm8.146.183c-.552 0-1.048-.1-1.49-.302a2.437 2.437 0 01-1.048-.888c-.257-.39-.386-.87-.386-1.44 0-.491.093-.896.28-1.215.185-.32.436-.573.753-.762a3.88 3.88 0 011.067-.427c.395-.096.8-.168 1.218-.215a85.42 85.42 0 001.253-.15c.32-.042.553-.108.7-.199.146-.09.22-.236.22-.436v-.039c0-.458-.133-.814-.398-1.067-.264-.253-.653-.379-1.164-.379-.536 0-.958.117-1.268.352-.31.234-.521.503-.635.805l-1.75-.317c.17-.528.433-.963.788-1.304a3.33 3.33 0 011.266-.759 4.935 4.935 0 011.58-.246c.383 0 .775.045 1.178.135.403.09.776.245 1.12.465s.62.526.834.917c.213.391.32.89.32 1.494v5.794h-1.81v-1.19h-.069a2.418 2.418 0 01-.506.66c-.222.21-.503.381-.843.514-.34.133-.743.2-1.21.2zm.448-1.43c.44 0 .82-.087 1.138-.262a1.89 1.89 0 00.731-.69c.17-.285.256-.594.256-.927v-1.073c-.065.058-.177.11-.338.158a5.005 5.005 0 01-.548.124c-.204.036-.405.067-.601.094l-.502.068a3.955 3.955 0 00-.857.208c-.255.095-.458.23-.609.406-.15.175-.225.404-.225.687 0 .398.147.698.439.902.293.203.665.305 1.116.305zm7.551-3.88v5.127h-1.871V86.13h1.792v1.447h.106c.2-.475.516-.853.95-1.136.433-.282.975-.424 1.626-.424.596 0 1.117.126 1.562.378.445.252.791.621 1.038 1.108.247.486.37 1.083.368 1.79v5.529h-1.871v-5.27c.001-.606-.155-1.08-.47-1.422-.314-.342-.747-.513-1.297-.513a2.01 2.01 0 00-1 .245c-.29.162-.518.399-.683.709-.166.31-.249.684-.25 1.124zm10.516 5.288c-.693 0-1.31-.178-1.854-.533-.544-.354-.972-.866-1.285-1.536-.312-.67-.468-1.477-.468-2.422 0-.954.158-1.764.475-2.43.317-.668.749-1.175 1.295-1.523a3.364 3.364 0 011.846-.522c.525 0 .951.088 1.28.263.328.176.587.383.775.622.188.24.334.456.436.65h.093v-4.319h1.872v11.589H50.29v-1.363h-.132a3.98 3.98 0 01-.448.655 2.452 2.452 0 01-.787.612c-.33.171-.752.257-1.265.257zm.473-1.56c.46 0 .851-.123 1.172-.37.32-.248.564-.592.732-1.034.168-.442.252-.957.252-1.543 0-.583-.082-1.092-.248-1.526-.165-.434-.408-.772-.728-1.012-.32-.241-.714-.361-1.18-.361-.482 0-.885.125-1.208.376-.323.252-.566.596-.73 1.033a4.246 4.246 0 00-.244 1.49c0 .562.083 1.066.249 1.51.165.445.41.796.733 1.052.323.257.723.385 1.2.385zm9.622 1.573c-.865 0-1.61-.183-2.234-.55a3.672 3.672 0 01-1.441-1.555c-.337-.67-.505-1.457-.505-2.36 0-.893.168-1.678.505-2.357a3.84 3.84 0 011.419-1.587c.608-.38 1.322-.57 2.14-.57a4.36 4.36 0 011.473.25 3.47 3.47 0 011.253.779c.366.352.655.805.867 1.359.212.553.317 1.217.317 1.992v.613H54.53v-1.324h5.205a2.365 2.365 0 00-.26-1.117 1.95 1.95 0 00-.727-.771 2.067 2.067 0 00-1.09-.282c-.449 0-.84.107-1.174.323a2.221 2.221 0 00-.775.848c-.183.35-.276.73-.278 1.142v1.095c0 .544.097 1.007.292 1.39.195.385.468.678.818.88.351.203.762.304 1.232.304.31 0 .591-.044.845-.132a1.78 1.78 0 00.655-.396c.183-.176.324-.394.421-.654l1.758.254a2.93 2.93 0 01-.688 1.277 3.359 3.359 0 01-1.266.848c-.51.2-1.093.301-1.745.301zm5.132-.174V86.13h1.812v1.415h.09c.16-.484.435-.863.83-1.135a2.31 2.31 0 011.343-.41c.11 0 .236.005.38.014.142.008.259.021.35.038v1.75a2.829 2.829 0 00-.388-.073 3.835 3.835 0 00-.53-.038c-.387 0-.732.082-1.036.246a1.862 1.862 0 00-.72.68c-.174.29-.262.621-.262.996v5.208h-1.871zm9.212.174c-.865 0-1.61-.183-2.234-.55a3.672 3.672 0 01-1.441-1.555c-.337-.67-.505-1.457-.505-2.36 0-.893.169-1.678.506-2.357a3.84 3.84 0 011.418-1.587c.609-.38 1.322-.57 2.14-.57a4.36 4.36 0 011.474.25 3.47 3.47 0 011.252.779c.367.352.656.805.867 1.359.212.553.318 1.217.318 1.992v.613h-7.017v-1.324h5.204a2.365 2.365 0 00-.26-1.117 1.95 1.95 0 00-.726-.771 2.067 2.067 0 00-1.091-.282c-.448 0-.84.107-1.173.323a2.221 2.221 0 00-.776.848c-.183.35-.276.73-.278 1.142v1.095c0 .544.097 1.007.292 1.39.195.385.468.678.819.88.35.203.761.304 1.231.304.31 0 .592-.044.845-.132a1.78 1.78 0 00.655-.396c.184-.176.324-.394.421-.654l1.759.254a2.93 2.93 0 01-.688 1.277 3.359 3.359 0 01-1.267.848c-.51.2-1.092.301-1.745.301zm7.003-5.3v5.126h-1.87V86.13h1.791v1.447h.107c.199-.475.515-.853.949-1.136.433-.282.975-.424 1.626-.424.596 0 1.117.126 1.562.378.445.252.791.621 1.038 1.108.247.486.37 1.083.369 1.79v5.529H82.8v-5.27c.001-.606-.155-1.08-.47-1.422-.314-.342-.746-.513-1.297-.513a2.01 2.01 0 00-1 .245c-.29.162-.518.399-.683.709-.165.31-.248.684-.25 1.124z" fill="#000" fill-rule="nonzero"/><g transform="translate(-.048 39)"><mask id="d" fill="#fff"><use xlink:href="#a"/></mask><use fill="url(#b)" fill-rule="nonzero" xlink:href="#a"/><circle fill="#FFF" opacity=".747" style="mix-blend-mode:soft-light" filter="url(#c)" mask="url(#d)" cx="28.433" cy="26.132" r="30.5"/><circle fill="#FFF" opacity=".752" style="mix-blend-mode:soft-light" filter="url(#e)" mask="url(#d)" cx="81.794" cy="-14.448" r="27"/></g><path d="M13.93 33.553c2.737 0 5.075-.394 7.015-1.181 1.94-.788 3.43-1.92 4.466-3.4 1.037-1.48 1.56-3.251 1.571-5.316-.01-1.309-.235-2.49-.673-3.543a8.14 8.14 0 00-1.932-2.794c-.85-.808-1.898-1.506-3.143-2.09-1.245-.586-2.68-1.054-4.305-1.405l-2.822-.639a16.047 16.047 0 01-2.02-.559 6.94 6.94 0 01-1.532-.742c-.422-.282-.743-.61-.962-.982-.219-.372-.318-.803-.296-1.293.01-.596.187-1.125.529-1.588.342-.463.855-.827 1.539-1.093.684-.266 1.54-.4 2.565-.4 1.55 0 2.745.328 3.584.982s1.312 1.567 1.42 2.738h7.6c-.022-2.033-.551-3.82-1.588-5.363-1.037-1.544-2.493-2.743-4.37-3.6C18.702.428 16.492 0 13.947 0c-2.49 0-4.708.426-6.654 1.277-1.945.851-3.468 2.038-4.57 3.56-1.1 1.521-1.646 3.293-1.635 5.315-.01 2.48.802 4.446 2.437 5.898 1.636 1.453 3.875 2.504 6.719 3.153l3.43.798c1.198.277 2.184.577 2.96.902.774.324 1.349.708 1.723 1.15.374.44.566.97.577 1.587a2.82 2.82 0 01-.625 1.756c-.406.511-.986.91-1.74 1.197-.753.288-1.665.431-2.734.431-1.165 0-2.188-.18-3.07-.542-.882-.362-1.574-.894-2.077-1.596-.502-.703-.785-1.58-.85-2.634h-7.6c.032 2.554.615 4.666 1.748 6.337 1.133 1.67 2.72 2.916 4.762 3.735 2.042.82 4.436 1.23 7.183 1.23zm29.196-.415l5.916-19.825h.257l5.917 19.825h7.648L72.404.447H63.65l-4.971 21.47h-.273L52.746.446h-7.151l-5.66 21.422h-.273L34.708.447h-8.771l9.556 32.691h7.633zm38.617 0V.447h-7.937v32.691h7.937zm15.969.415c2.737 0 5.075-.394 7.015-1.181 1.94-.788 3.429-1.92 4.466-3.4 1.036-1.48 1.56-3.251 1.57-5.316-.01-1.309-.234-2.49-.673-3.543a8.14 8.14 0 00-1.932-2.794c-.85-.808-1.897-1.506-3.142-2.09-1.246-.586-2.68-1.054-4.306-1.405l-2.822-.639a16.047 16.047 0 01-2.02-.559 6.94 6.94 0 01-1.531-.742c-.422-.282-.743-.61-.962-.982-.22-.372-.318-.803-.297-1.293.01-.596.187-1.125.53-1.588.341-.463.854-.827 1.539-1.093.684-.266 1.539-.4 2.565-.4 1.55 0 2.745.328 3.584.982.839.655 1.312 1.567 1.419 2.738h7.6c-.021-2.033-.55-3.82-1.587-5.363-1.037-1.544-2.494-2.743-4.37-3.6C102.482.428 100.272 0 97.728 0c-2.49 0-4.709.426-6.654 1.277-1.946.851-3.469 2.038-4.57 3.56-1.101 1.521-1.646 3.293-1.635 5.315-.011 2.48.801 4.446 2.437 5.898 1.635 1.453 3.875 2.504 6.718 3.153l3.431.798c1.198.277 2.184.577 2.959.902.775.324 1.35.708 1.723 1.15.375.44.567.97.578 1.587a2.82 2.82 0 01-.626 1.756c-.406.511-.986.91-1.74 1.197-.753.288-1.664.431-2.733.431-1.165 0-2.189-.18-3.07-.542-.883-.362-1.575-.894-2.077-1.596-.503-.703-.786-1.58-.85-2.634h-7.6c.032 2.554.614 4.666 1.747 6.337 1.134 1.67 2.72 2.916 4.763 3.735 2.041.82 4.436 1.23 7.183 1.23z" fill="#000" fill-rule="nonzero"/></g></svg>